Coordinates
version=1
nRows=8
nColumns=40
inDegrees=yes

Units are S.I. units (second, meters, Newtons, ...)
Angles are in degrees.

endheader
time	pelvis_tilt	pelvis_list	pelvis_rotation	pelvis_tx	pelvis_ty	pelvis_tz	hip_flexion_r	hip_adduction_r	hip_rotation_r	knee_angle_r	knee_angle_r_beta	ankle_angle_r	subtalar_angle_r	mtp_angle_r	hip_flexion_l	hip_adduction_l	hip_rotation_l	knee_angle_l	knee_angle_l_beta	ankle_angle_l	subtalar_angle_l	mtp_angle_l	lumbar_extension	lumbar_bending	lumbar_rotation	arm_flex_r	arm_add_r	arm_rot_r	elbow_flex_r	pro_sup_r	wrist_flex_r	wrist_dev_r	arm_flex_l	arm_add_l	arm_rot_l	elbow_flex_l	pro_sup_l	wrist_flex_l	wrist_dev_l
      0.00000000	     -3.25523366	     -1.60536865	     -2.66265331	     -0.91100117	      0.88975101	      1.08932721	     -3.39007901	     -1.83807955	    -13.74156609	    -18.63257551	     -0.32519979	     11.74171312	     -1.06987699	     -3.59726807	     34.74107996	      4.20087949	     12.71645255	    -42.96336845	     -0.74985224	      6.58794762	     17.50222667	     16.28920420	     -6.58178418	      0.05307046	      1.45913625	     -4.17032091	    -10.44671780	    -16.78034508	     53.50426616	     89.95437384	      0.00000000	      0.00000000	     -8.81137161	     10.85079302	     20.50794986	     33.03050769	     89.95437384	      0.00000000	      0.00000000
      0.01000000	     -3.38585950	     -1.63133549	     -2.75851751	     -0.89765247	      0.88847742	      1.08993331	     -4.40191109	     -1.83835786	    -13.84222117	    -18.23931969	     -0.31833618	     11.62881560	     -0.69681657	     -3.61838615	     35.21421493	      4.35742578	     12.99906805	    -39.77169304	     -0.69414699	      6.41575750	     17.15549827	     16.15027763	     -6.52540524	      0.01477627	      1.83038409	     -3.92365995	    -10.64433128	    -16.67056261	     55.21834669	     89.95437384	      0.00000000	      0.00000000	     -9.06612323	     10.76953274	     21.46515790	     31.64180000	     89.95437384	      0.00000000	      0.00000000
      0.02000000	     -3.87611514	     -1.89234350	     -2.89194103	     -0.88443593	      0.88648346	      1.09076014	     -4.82231781	     -1.58753205	    -13.94892719	    -18.22738037	     -0.31812780	     11.47200659	     -0.52804755	     -3.58451649	     36.10212546	      4.80611757	     13.11586352	    -36.82230933	     -0.64267054	      6.56359582	     16.32767317	     15.83695306	     -6.07398096	      0.20933609	      2.15107792	     -3.74100453	    -10.89907946	    -16.35566794	     56.88898753	     89.95437384	      0.00000000	      0.00000000	     -9.75489675	     10.82805352	     21.81871330	     30.86741578	     89.95437384	      0.00000000	      0.00000000
      0.03000000	     -3.99798501	     -1.77172753	     -3.05530056	     -0.87073531	      0.88522631	      1.09113924	     -5.64288695	     -1.84212886	    -13.99125291	    -18.22630752	     -0.31810908	     11.15463581	     -0.04390416	     -3.62802215	     36.29406742	      4.82712418	     13.56782174	    -33.70172758	     -0.58820611	      6.76149685	     15.46284497	     15.39712778	     -5.97445501	      0.00759412	      2.50284191	     -3.52857898	    -10.96295401	    -16.40340049	     58.46069284	     89.95437384	      0.00000000	      0.00000000	     -9.75487059	     10.73396221	     23.04043697	     29.05521316	     89.95437384	      0.00000000	      0.00000000
      0.04000000	     -4.39028157	     -1.87235982	     -3.20973512	     -0.85696227	      0.88329709	      1.09144311	     -6.05817338	     -1.85813837	    -13.98208141	    -18.47061912	     -0.32237312	     10.79891243	      0.23998953	     -3.63266878	     36.92714699	      5.08980653	     13.79687681	    -31.21714398	     -0.54484195	      6.83121426	     14.57643902	     14.98633747	     -5.56353597	      0.05808421	      2.74050000	     -3.37865631	    -11.16632246	    -16.15251186	     59.98068570	     89.95437384	      0.00000000	      0.00000000	    -10.27508658	     10.69847164	     23.68293647	     28.03385043	     89.95437384	      0.00000000	      0.00000000
      0.05000000	     -4.62622319	     -1.88149311	     -3.37740306	     -0.84266528	      0.88155375	      1.09171715	     -6.58014605	     -2.12371597	    -14.43499789	    -18.86455192	     -0.32924854	     10.41058103	      1.52051647	     -4.14183130	     37.39072933	      5.42723299	     14.65341816	    -29.23684563	     -0.51027922	      6.64603415	     13.55196718	     12.39941125	     -5.26375890	     -0.03519632	      2.89878659	     -3.21122789	    -11.24739104	    -15.95361808	     61.32402719	     89.95437384	      0.00000000	      0.00000000	    -10.66729901	     10.52706851	     25.15007498	     26.84385009	     89.95437384	      0.00000000	      0.00000000
      0.06000000	     -4.89300130	     -1.89243806	     -3.60103184	     -0.82819846	      0.87977329	      1.09181086	     -7.03587767	     -2.29137608	    -14.09574400	    -19.30354979	     -0.33691050	      9.83166963	      1.45430124	     -4.15228061	     37.83694260	      5.70659347	     15.27990002	    -27.66138407	     -0.48278223	      6.49898073	     12.58828720	     11.61658293	     -4.90036325	     -0.09396714	      3.19278812	     -3.19789286	    -11.31417140	    -15.92265655	     62.68030792	     89.95437384	      0.00000000	      0.00000000	    -11.03556531	     10.51198079	     25.68950380	     25.62688183	     89.95437384	      0.00000000	      0.00000000
      0.07000000	     -5.19277398	     -1.94957212	     -3.71622333	     -0.81355234	      0.87782455	      1.09159756	     -7.41286698	     -2.41692150	    -13.82634017	    -19.81433680	     -0.34582542	      9.16775332	      1.41369621	     -4.07563783	     38.34821514	      5.90547563	     15.60146623	    -26.64420257	     -0.46502906	      6.54734930	     11.88958358	     11.20174647	     -4.47659553	     -0.11777204	      3.29260038	     -3.19524068	    -11.43484991	    -15.67891163	     63.96909104	     89.95437384	      0.00000000	      0.00000000	    -11.65572056	     10.51390845	     25.94618074	     24.85598052	     89.95437384	      0.00000000	      0.00000000
